<svg width="41" height="41" viewBox="0 0 41 41" fill="none" xmlns="http://www.w3.org/2000/svg">
<rect x="0.8659" y="0.869806" width="39.5172" height="39.2682" rx="19.6341" stroke="#C4C4C4" stroke-opacity="0.3" stroke-width="0.7318"/>
<path fill-rule="evenodd" clip-rule="evenodd" d="M16.0411 11.3373C16.5474 11.3373 16.9578 11.7477 16.9578 12.2539V13.1706H24.2911V12.2539C24.2911 11.7477 24.7015 11.3373 25.2078 11.3373C25.714 11.3373 26.1244 11.7477 26.1244 12.2539V13.1706H27.0411C28.5599 13.1706 29.7911 14.4018 29.7911 15.9206V26.9206C29.7911 28.4394 28.5599 29.6706 27.0411 29.6706H14.2078C12.689 29.6706 11.4578 28.4394 11.4578 26.9206V15.9206C11.4578 14.4018 12.689 13.1706 14.2078 13.1706H15.1244V12.2539C15.1244 11.7477 15.5348 11.3373 16.0411 11.3373ZM24.2911 15.0039V15.9206C24.2911 16.4269 24.7015 16.8373 25.2078 16.8373C25.714 16.8373 26.1244 16.4269 26.1244 15.9206V15.0039H27.0411C27.5474 15.0039 27.9578 15.4144 27.9578 15.9206V18.6706H13.2911V15.9206C13.2911 15.4144 13.7015 15.0039 14.2078 15.0039H15.1244V15.9206C15.1244 16.4269 15.5348 16.8373 16.0411 16.8373C16.5474 16.8373 16.9578 16.4269 16.9578 15.9206V15.0039H24.2911ZM13.2911 20.5039V26.9206C13.2911 27.4269 13.7015 27.8373 14.2078 27.8373H27.0411C27.5474 27.8373 27.9578 27.4269 27.9578 26.9206V20.5039H13.2911Z" fill="#6F767E"/>
</svg>
